<?xml version="1.0" encoding="UTF-8"?>
<!DOCTYPE svg PUBLIC "-//W3C//DTD SVG 1.1//EN" "http://www.w3.org/Graphics/SVG/1.1/DTD/svg11.dtd">
<svg xmlns="http://www.w3.org/2000/svg" xml:space="preserve" width="512px" height="511px" version="1.1" style="shape-rendering:geometricPrecision; text-rendering:geometricPrecision; image-rendering:optimizeQuality; fill-rule:evenodd; clip-rule:evenodd"
viewBox="0 0 130.6 130.46">
 <defs>
  <style type="text/css">
   <![CDATA[
    .fil7 {fill:#03285A}
    .fil3 {fill:#1EA5C3}
    .fil5 {fill:#304347}
    .fil1 {fill:#304348}
    .fil0 {fill:#FB8105}
    .fil2 {fill:#FBA205}
    .fil6 {fill:#FC5218}
    .fil4 {fill:#FC8105}
   ]]>
  </style>
 </defs>
 <g id="Livello_x0020_1">
  <metadata id="Layer"/>
  <g id="_2264392060224">
   <path class="fil0" d="M125.76 26.74l0.09 8.19c0,0.03 -0.01,0.07 -0.01,0.1 -0.11,0.73 0.01,1.63 0.06,2.3l-0.03 7.35c-0.01,0.35 -0.16,1 -0.05,1.68 0.16,1.09 0.08,2.42 0.08,3.44l-0.05 2.03c0.11,1.68 0.02,3.71 -0.03,5.2l0 6.5c-0.06,1.27 0.1,2.1 0.07,3.27l-0.06 3.03c0,0.02 0,0.38 0,0.43l0.03 4.1c-0.03,0.31 0,-0.07 -0.02,0.27l0.02 1.13c0.01,0.5 -0.02,-0.05 0,0.32 0.12,1.68 -0.15,3.82 -0.02,5.44l0.01 7.79c0.05,0.74 -0.09,0.47 -0.09,0.89 0,0.5 0.12,0.66 0.06,1.21 -0.12,1.01 0.02,2.35 0.01,3.05l-0.06 5.3c-0.01,0.28 0.02,0.42 0.03,0.65l0.03 7.51c-0.19,2.6 -0.17,4.44 -1.16,6.9 -0.84,2.08 -2.2,4.17 -3.65,5.61 -3.68,3.65 -7.59,5.33 -13.19,5.33l-85.21 0c-10.19,0 -17.77,-7.61 -17.77,-17.93l0 -85.35c0,-2.88 0.5,-4.98 1.34,-7.04 0.37,-0.9 0.89,-1.86 1.42,-2.69 2.65,-4.21 8.03,-7.9 13.25,-7.9l88.15 0c7.42,0 14.51,5.8 16.25,12.84 0.41,1.67 0.5,2.27 0.5,4.35l0.04 4.18c0.02,0.58 -0.04,-0.13 -0.04,0.52zm-125.76 -3.97l0 85.06c0,5.74 1.39,9.92 4.53,14.13 1.93,2.58 4.48,4.71 7.37,6.15 2.09,1.04 5.42,2.35 8.52,2.35l89.76 0c3.21,0 6.1,-1.09 8.82,-2.5 0.29,-0.15 0.58,-0.28 0.87,-0.45 2.54,-1.46 5.09,-3.78 6.77,-6.16 1.03,-1.46 1.12,-1.66 1.91,-3.23 1.04,-2.08 2.05,-5.14 2.05,-8.23l0 -89.03c0,-3.16 -1.02,-6.16 -2.1,-8.32 -0.84,-1.68 -1.86,-3.44 -3.15,-4.79 -0.48,-0.51 -0.73,-0.88 -1.25,-1.4 -1.71,-1.72 -4.07,-3.29 -6.27,-4.3 -2.26,-1.03 -5.25,-2.05 -8.53,-2.05l-88.44 0c-2.85,0 -6.2,1.04 -8.62,2.25 -2.35,1.18 -3,1.77 -4.79,3.29 -5.03,4.25 -7.45,10.43 -7.45,17.23z"/>
   <g>
    <path class="fil1" d="M51.18 103.28c-0.57,2.52 -4.62,1.8 -7.93,1.8 -2.02,0 -7.75,0.98 -6.64,-3.22 0.59,-2.24 5,-1.57 7.99,-1.57 2.3,0 7.45,-0.88 6.58,2.99zm-34.78 -0.38c-0.15,-3.5 3.55,-2.61 7.12,-2.61 3.48,-0.01 7.46,-0.76 7.72,2.07 0.34,3.79 -4.82,2.72 -7.21,2.72 -3.47,0 -7.51,0.78 -7.63,-2.18zm42.12 -0.57c-0.17,-1.91 1.12,-3.54 2.6,-3.77 1.83,-0.29 3.37,1.16 3.5,3.04 0.33,4.48 -5.71,4.88 -6.1,0.73zm33.38 -28.56c5.97,-0.73 11.37,1.78 15.13,6.76 3.65,4.83 4.88,12.14 3.06,18.33 -0.85,2.86 -1.87,4.16 -3.08,6.18 -0.46,0.77 -0.56,0.61 -1.11,1.2 -0.55,0.59 -0.37,0.68 -1.08,1.23 -0.91,0.7 -1.45,1.27 -2.5,1.93 -8.74,5.45 -19.21,1.51 -23.29,-7.11 -0.97,-2.06 -1.81,-4.37 -2.12,-7.08 -1.28,-11.24 6.23,-20.37 14.99,-21.44zm-53.72 14.87c1.28,-0.31 7.64,-0.02 9.45,-0.02 1.58,-0.01 2.87,-0.02 3.43,1.36 0.61,1.47 -0.34,2.89 -1.32,3.16 -1.25,0.35 -7.75,0.09 -9.53,0.09 -1.74,0 -2.96,0.22 -3.5,-1.32 -0.57,-1.6 0.21,-2.96 1.47,-3.27zm-20.15 0.05c1.07,-0.31 7.74,-0.07 9.37,-0.08 1.69,0 2.98,-0.21 3.65,1.31 0.63,1.43 -0.3,3.01 -1.34,3.25 -1.53,0.36 -7.57,0.06 -9.56,0.06 -1.74,0 -2.98,0.24 -3.61,-1.4 -0.61,-1.57 0.41,-2.82 1.49,-3.14zm53.66 -2.14c3.31,-0.52 4.21,5.52 0.87,6.34 -3.67,0.88 -4.46,-5.78 -0.87,-6.34zm-10.48 -0.22c3.88,-0.59 4.83,6.29 0.68,6.82 -4.06,0.52 -4.61,-6.23 -0.68,-6.82zm-42.89 -23.59c0.78,-0.2 24.08,-0.05 25.6,-0.05 1.47,-0.01 4.93,-0.29 6.04,0.37 1.76,1.07 1.31,3.28 1.32,5.83 0,2.39 -0.01,4.79 0,7.18 0,2.43 0.22,4.61 -1.88,5.19 -1.38,0.38 -22.38,0.12 -25.71,0.12 -1.32,0.01 -5.16,0.3 -6.1,-0.36 -0.25,-0.17 -0.24,-0.21 -0.45,-0.43 -0.48,-0.5 -0.67,-0.85 -0.78,-1.86l-0.03 -10.78c0,-2.49 -0.2,-4.66 1.99,-5.21zm53.77 11.37c3.86,-0.61 4.57,6.06 0.83,6.74 -3.97,0.73 -5.08,-6.08 -0.83,-6.74zm-11.56 0.26c1.85,-0.77 3.54,0.48 3.95,2.06 0.52,1.99 -0.41,3.8 -1.89,4.31 -3.81,1.3 -5.95,-4.74 -2.06,-6.37zm32.78 -12.35c3.77,-1.18 5.39,5.52 1.58,6.54 -4,1.07 -5.46,-5.32 -1.58,-6.54zm-10.85 -0.04c3.97,-1.07 5.26,5.63 1.49,6.61 -1.77,0.45 -3.35,-0.94 -3.68,-2.44 -0.45,-2.07 0.77,-3.78 2.19,-4.17zm-10.77 0.02c1.79,-0.47 3.34,0.82 3.65,2.44 0.4,2.06 -0.72,3.79 -2.18,4.14 -4.13,0.98 -5.15,-5.63 -1.47,-6.58zm-10.88 0.04c1.78,-0.59 3.42,0.91 3.73,2.43 0.42,2.07 -0.79,3.7 -2.19,4.09 -3.88,1.08 -5.54,-5.2 -1.54,-6.52zm43.32 0c3.5,-1.29 5.54,5.18 1.68,6.47 -1.87,0.63 -3.41,-0.62 -3.83,-2.14 -0.65,-2.35 0.72,-3.8 2.15,-4.33zm-81.79 -37.76c-1.29,0.48 -2.27,0.34 -3.54,-0.03l0 24.05c-3.94,-0.94 -3.03,4.59 -3.03,6.42 -1.93,0 -2.75,-0.04 -3.91,0.91 -3.44,2.85 -1.93,7.15 -2.23,12.85l0.02 27.34c0.51,5.8 -1.24,10.96 2.04,13.92 0.91,0.81 1.95,1.3 3.57,1.29 1.63,-0.01 3.26,0 4.89,0 0,2.97 -0.41,4.61 0.96,6.1 0.69,0.75 1.12,0.9 2.41,0.89l6.58 0c2.09,0.01 3.67,-0.64 3.72,-3.2 0.02,-1.25 -0.01,-2.55 -0.01,-3.79 2.9,0 48.23,-0.16 48.8,0.09 0.58,0.26 3.41,4.25 12.56,4.25 0.02,0.94 0.47,1.46 0.96,1.95 1.17,1.16 5.47,0.7 7.8,0.7 2.41,0 3.18,0.24 4.35,-1.37 0.82,-1.13 0.54,-3.67 0.54,-5.62 3.48,0 6.45,0.5 8.46,-1.29 2.42,-2.17 2.16,-5.01 2.16,-8.35l0 -32.5c0,-3.32 0.38,-7.86 -0.39,-10.52 -0.36,-1.26 -1.15,-2.25 -2.14,-2.89 -1.49,-0.97 -1.98,-0.76 -4.21,-0.76l-87.15 0c0,-2.65 0.64,-6.11 -2.3,-6.47 -0.58,-0.08 -0.17,-0.02 -0.91,0.05l0 -24.02z"/>
    <path class="fil2" d="M102.54 99.56c0.16,0.97 -0.27,1.37 0.45,2.13 1.17,1.24 2.27,1.21 -0.19,3.53 -0.51,0.49 -1.35,1.08 -2.03,1.5 -1.61,0.98 -3.55,1.9 -4.23,-0.67l-4.91 0.36c-0.61,0.21 -0.24,1.67 -3.32,0.78 -1.11,-0.33 -2.62,-0.76 -3.61,-1.25 -1.47,-0.72 -1.22,-1.84 -1.17,-3.81 0.06,-2.34 1.14,-1.4 2.34,-2.63l0.03 -1.73c0.49,-5.76 4.24,-7.36 3.67,-10.53 -0.37,-2.08 -0.63,-4.7 0.47,-6.33 2.05,-2.99 5.26,-2.86 6.99,-0.88l0.66 0.99c1.78,3.53 0.29,5.48 1.29,7.99 0.91,2.28 3.19,4.01 3.65,7.24 0.11,0.76 0.28,2.08 0.1,2.85l-0.12 0.31c-0.01,-0.02 -0.04,0.1 -0.07,0.15zm-10.64 -25.79c-8.76,1.07 -16.27,10.2 -14.99,21.44 0.31,2.71 1.15,5.02 2.12,7.08 4.08,8.62 14.55,12.56 23.29,7.11 1.05,-0.66 1.59,-1.23 2.5,-1.93 0.71,-0.55 0.53,-0.64 1.08,-1.23 0.55,-0.59 0.65,-0.43 1.11,-1.2 1.21,-2.02 2.23,-3.32 3.08,-6.18 1.82,-6.19 0.59,-13.5 -3.06,-18.33 -3.76,-4.98 -9.16,-7.49 -15.13,-6.76z"/>
    <path class="fil3" d="M18.32 62.74c-2.19,0.55 -1.99,2.72 -1.99,5.21l0.03 10.78c0.11,1.01 0.3,1.36 0.78,1.86 0.21,0.22 0.2,0.26 0.45,0.43 0.94,0.66 4.78,0.37 6.1,0.36 3.33,0 24.33,0.26 25.71,-0.12 2.1,-0.58 1.88,-2.76 1.88,-5.19 -0.01,-2.39 0,-4.79 0,-7.18 -0.01,-2.55 0.44,-4.76 -1.32,-5.83 -1.11,-0.66 -4.57,-0.38 -6.04,-0.37 -1.52,0 -24.82,-0.15 -25.6,0.05z"/>
    <path class="fil4" d="M54.88 35.26l-0.34 0c-0.01,-0.85 -3.65,-13.68 -4.04,-15.31 -0.39,-1.59 -0.79,-3.96 -2.53,-3.96 -1.76,0 -2.11,1.49 -2.55,3l-3.5 11c-0.25,0.84 -0.52,1.41 -0.7,2.25 -1.24,-1.03 -2.01,-4.73 -3.87,-4.73 -4.13,0 -6.41,-0.76 -6.41,2.46 0,0.73 0.46,1.33 0.92,1.62 0.56,0.34 1.31,0.28 2.11,0.27 2.82,-0.03 1.93,-0.23 5.03,4.95 0.62,1.03 1.14,2.61 2.56,2.61 1.48,0 1.87,-1.44 2.26,-2.77 0.41,-1.43 0.86,-2.65 1.3,-4.01 0.42,-1.3 0.8,-2.69 1.28,-4.05 0.34,-0.96 1.16,-3.12 1.23,-4.1l0.4 1.25c0.14,0.58 0.22,0.92 0.38,1.47l3.67 13.83c0.48,1.88 0.73,4.23 2.63,4.23 1.01,0 1.56,-0.73 1.84,-1.53 0.28,-0.8 0.51,-1.85 0.75,-2.75 0.53,-1.99 0.99,-3.69 1.52,-5.66 0.52,-1.98 0.95,-3.72 1.52,-5.67 0.28,-0.96 0.51,-1.88 0.76,-2.74 0.21,-0.73 0.46,-2.16 0.86,-2.81l3.22 12.26c0.47,1.68 0.51,3.05 2.51,3.05 1.15,0 2.06,-2.02 2.97,-3.48l2.59 -4.08c1.01,0 6.77,0.13 7.46,-0.15 1.83,-0.76 1.37,-4.2 -0.54,-4.2l-8.1 0c-1.31,0 -3.6,4.29 -3.7,4.73l-0.34 0c-0.02,-0.72 -2.04,-8.23 -2.38,-9.43 -0.43,-1.49 -0.8,-3.06 -1.22,-4.68 -0.74,-2.89 -0.69,-3.66 -2.81,-3.66 -1.53,0 -1.77,2 -2,2.86l-4.74 17.93z"/>
    <path class="fil0" d="M86.07 15.23c0,2.53 1.22,3.22 3.41,5.62 0.16,0.18 0.18,0.2 0.35,0.37l8.04 8.94c-0.47,0.78 -7.82,8.86 -9.06,10.25 -1.26,1.4 -3.98,3.5 -2.18,6.12 0.31,0.45 0.55,0.67 1.07,0.88 2.65,1.08 4.42,-2.63 7.54,-5.84 0.15,-0.16 0.11,-0.13 0.26,-0.27l6.24 -6.8c0.7,0.52 7.84,8.69 9.06,10.06 1.94,2.18 2.01,2.98 4.26,2.98 1.37,0 2.19,-1.38 2.19,-3.21 0,-1.33 -1.92,-3.01 -2.65,-3.83 -1.26,-1.41 -8.68,-9.56 -9.15,-10.34l9.91 -11.2c1.1,-1.08 1.89,-1.45 1.89,-3.54 0,-1.37 -1.17,-2.65 -3.03,-2.65 -1.28,0 -5.37,5.17 -6.45,6.38l-6.2 6.85c-0.46,-0.78 -7.81,-8.86 -9.06,-10.25 -1.93,-2.17 -2,-2.98 -4.25,-2.98 -1.14,0 -2.19,1.49 -2.19,2.46z"/>
    <path class="fil5" d="M95.63 87.62c-1.61,1.7 -5.9,1.05 -4.56,-0.83 0.32,-0.44 1.94,-1.39 2.39,-1.23 0.99,0.36 2.17,0.93 2.17,2.06zm-1.64 -2.34c-0.62,-0.23 -0.61,-0.01 -0.46,-0.8 0.07,-0.34 0.33,-0.72 0.53,-0.96 2.32,-2.88 3.1,2.42 1.77,2.83 -0.81,-0.78 0.54,-2.09 -1.24,-2.17 -0.45,0.55 -0.22,0.77 -0.6,1.1zm-2.81 0.88l-0.56 0.12c-1.46,-2.29 1.01,-4.7 2.04,-2.51 0.73,1.54 -0.19,1.53 -0.19,1.54 -0.02,-0.04 -0.05,-0.14 -0.06,-0.12l-0.25 -0.63c-0.33,-0.58 -0.05,-0.41 -0.91,-0.4 -0.28,0.87 0.02,1.28 -0.07,2zm-5.28 11.61c0.03,0.04 0.06,0.06 0.07,0.13 0.01,0.09 0.11,0.22 0.13,0.26 0.28,0.62 -0.08,-0.1 0.14,0.33l1.26 0.74c0.57,0.35 0.7,0.68 1.13,1.35 0.49,0.76 1.32,2.61 1.92,2.99 0.21,-0.18 0.03,-0.07 0.2,0.17l0.17 0.29c0.16,-1.03 0.93,-2.04 -0.91,-3.85 -0.94,-0.93 -2.1,-1.31 -1.68,-3.63 0.27,-1.48 1.71,-4.26 2.39,-5.84 0.27,-0.64 0.42,-1.45 0.74,-1.93 1.66,0.49 0.96,0.84 1.69,0.94 1.08,-0.13 0.75,-0.36 1.34,-0.81 0.44,-0.35 0.94,-0.54 1.35,-0.69 0.52,0.99 0.14,2.17 1.46,4.9 0.64,1.33 1.57,3.11 1.33,4.98 -0.19,1.44 -0.8,1.12 -1.17,1.91 -0.37,0.8 -0.19,1.47 -0.77,2.52 -1.45,2.64 -3.02,1.12 -4.19,2.14l0.33 0.09c-0.5,-0.08 -1.09,-0.03 -1.48,0.22l-0.18 1.32 5.13 -0.33 0.11 -1.02c0.01,-0.34 -0.28,-1.05 0.05,-0.53 0.44,-0.56 0.87,-1.84 1.01,-2.55 0.41,-1.96 -0.07,-1.44 1.24,-2.34l0.04 1.21c2.12,0.62 2.04,-0.09 2.78,-0.56 0.96,-0.62 0.6,-0.17 0.74,-0.01 0.03,-0.05 0.06,-0.21 0.06,-0.17 0.1,0.37 0.1,-0.26 0.11,-0.29 0.12,-0.27 -0.08,-0.72 0.1,-0.15 0.03,-0.05 0.06,-0.17 0.07,-0.15l0.12 -0.31c0.18,-0.77 0.01,-2.09 -0.1,-2.85 -0.46,-3.23 -2.74,-4.96 -3.65,-7.24 -1,-2.51 0.49,-4.46 -1.29,-7.99l-0.66 -0.99c-1.73,-1.98 -4.94,-2.11 -6.99,0.88 -1.1,1.63 -0.84,4.25 -0.47,6.33 0.57,3.17 -3.18,4.77 -3.67,10.53z"/>
    <path class="fil2" d="M90.92 104.03c0.5,0.71 0.6,0.49 1.58,0.64 1.17,-1.02 2.74,0.5 4.19,-2.14 0.58,-1.05 0.4,-1.72 0.77,-2.52 0.37,-0.79 0.98,-0.47 1.17,-1.91 0.24,-1.87 -0.69,-3.65 -1.33,-4.98 -1.32,-2.73 -0.94,-3.91 -1.46,-4.9 -0.41,0.15 -0.91,0.34 -1.35,0.69 -0.59,0.45 -0.26,0.68 -1.34,0.81 -0.73,-0.1 -0.03,-0.45 -1.69,-0.94 -0.32,0.48 -0.47,1.29 -0.74,1.93 -0.68,1.58 -2.12,4.36 -2.39,5.84 -0.42,2.32 0.74,2.7 1.68,3.63 1.84,1.81 1.07,2.82 0.91,3.85z"/>
    <path class="fil6" d="M18.8 24.25c1.27,0.37 2.25,0.51 3.54,0.03 4.81,-1.03 4.96,-11.11 -1.51,-11.14 -1.64,-0.01 -2.5,0.42 -3.45,1.25 -0.78,0.66 -1.57,1.99 -1.85,3.22 -0.62,2.76 0.87,5.64 3.27,6.64z"/>
    <path class="fil2" d="M16.4 102.9c0.12,2.96 4.16,2.18 7.63,2.18 2.39,0 7.55,1.07 7.21,-2.72 -0.26,-2.83 -4.24,-2.08 -7.72,-2.07 -3.57,0 -7.27,-0.89 -7.12,2.61z"/>
    <path class="fil2" d="M51.18 103.28c0.87,-3.87 -4.28,-2.99 -6.58,-2.99 -2.99,0 -7.4,-0.67 -7.99,1.57 -1.11,4.2 4.62,3.22 6.64,3.22 3.31,0 7.36,0.72 7.93,-1.8z"/>
    <path class="fil2" d="M18.03 88.69c-1.08,0.32 -2.1,1.57 -1.49,3.14 0.63,1.64 1.87,1.4 3.61,1.4 1.99,0 8.03,0.3 9.56,-0.06 1.04,-0.24 1.97,-1.82 1.34,-3.25 -0.67,-1.52 -1.96,-1.31 -3.65,-1.31 -1.63,0.01 -8.3,-0.23 -9.37,0.08z"/>
    <path class="fil2" d="M38.18 88.64c-1.26,0.31 -2.04,1.67 -1.47,3.27 0.54,1.54 1.76,1.32 3.5,1.32 1.78,0 8.28,0.26 9.53,-0.09 0.98,-0.27 1.93,-1.69 1.32,-3.16 -0.56,-1.38 -1.85,-1.37 -3.43,-1.36 -1.81,0 -8.17,-0.29 -9.45,0.02z"/>
    <path class="fil2" d="M90.55 103.57c-0.6,-0.38 -1.43,-2.23 -1.92,-2.99 -0.43,-0.67 -0.56,-1 -1.13,-1.35l-1.26 -0.74c-0.03,3.7 -3.12,-0.13 -2.38,5.93 0.14,1.08 0.96,1.21 1.84,1.54 1.43,0.52 3.64,1.43 5.15,0.97l0.36 -1.94c-0.29,-0.48 -0.53,-0.66 -0.66,-1.42z"/>
    <path class="fil2" d="M96.46 104.42c0.21,1.57 0.48,2.3 1.41,2.99 2.06,-0.18 5.62,-2.74 6.08,-4.13 -0.57,-1.55 -1.86,-0.81 -1.68,-3.11 -0.14,-0.16 0.22,-0.61 -0.74,0.01 -0.74,0.47 -0.66,1.18 -2.78,0.56l-0.04 -1.21c-1.31,0.9 -0.83,0.38 -1.24,2.34 -0.14,0.71 -0.57,1.99 -1.01,2.55z"/>
    <path class="fil2" d="M61.21 86.33c-3.93,0.59 -3.38,7.34 0.68,6.82 4.15,-0.53 3.2,-7.41 -0.68,-6.82z"/>
    <path class="fil2" d="M60.53 74.37c-3.89,1.63 -1.75,7.67 2.06,6.37 1.48,-0.51 2.41,-2.32 1.89,-4.31 -0.41,-1.58 -2.1,-2.83 -3.95,-2.06z"/>
    <path class="fil2" d="M72.09 74.11c-4.25,0.66 -3.14,7.47 0.83,6.74 3.74,-0.68 3.03,-7.35 -0.83,-6.74z"/>
    <path class="fil2" d="M60.81 62.04c-4,1.32 -2.34,7.6 1.54,6.52 1.4,-0.39 2.61,-2.02 2.19,-4.09 -0.31,-1.52 -1.95,-3.02 -3.73,-2.43z"/>
    <path class="fil2" d="M104.13 62.04c-1.43,0.53 -2.8,1.98 -2.15,4.33 0.42,1.52 1.96,2.77 3.83,2.14 3.86,-1.29 1.82,-7.76 -1.68,-6.47z"/>
    <path class="fil2" d="M58.52 102.33c0.39,4.15 6.43,3.75 6.1,-0.73 -0.13,-1.88 -1.67,-3.33 -3.5,-3.04 -1.48,0.23 -2.77,1.86 -2.6,3.77z"/>
    <path class="fil2" d="M93.31 62.02c-3.88,1.22 -2.42,7.61 1.58,6.54 3.81,-1.02 2.19,-7.72 -1.58,-6.54z"/>
    <path class="fil2" d="M82.46 61.98c-1.42,0.39 -2.64,2.1 -2.19,4.17 0.33,1.5 1.91,2.89 3.68,2.44 3.77,-0.98 2.48,-7.68 -1.49,-6.61z"/>
    <path class="fil2" d="M71.69 62c-3.68,0.95 -2.66,7.56 1.47,6.58 1.46,-0.35 2.58,-2.08 2.18,-4.14 -0.31,-1.62 -1.86,-2.91 -3.65,-2.44z"/>
    <path class="fil2" d="M71.69 86.55c-3.59,0.56 -2.8,7.22 0.87,6.34 3.34,-0.82 2.44,-6.86 -0.87,-6.34z"/>
    <path class="fil7" d="M102.54 99.56c-0.18,-0.57 0.02,-0.12 -0.1,0.15 -0.01,0.03 -0.01,0.66 -0.11,0.29 0,-0.04 -0.03,0.12 -0.06,0.17 -0.18,2.3 1.11,1.56 1.68,3.11 -0.46,1.39 -4.02,3.95 -6.08,4.13 -0.93,-0.69 -1.2,-1.42 -1.41,-2.99 -0.33,-0.52 -0.04,0.19 -0.05,0.53l-0.11 1.02 -5.13 0.33 0.18 -1.32c0.39,-0.25 0.98,-0.3 1.48,-0.22l-0.33 -0.09c-0.98,-0.15 -1.08,0.07 -1.58,-0.64l-0.17 -0.29c-0.17,-0.24 0.01,-0.35 -0.2,-0.17 0.13,0.76 0.37,0.94 0.66,1.42l-0.36 1.94c-1.51,0.46 -3.72,-0.45 -5.15,-0.97 -0.88,-0.33 -1.7,-0.46 -1.84,-1.54 -0.74,-6.06 2.35,-2.23 2.38,-5.93 -0.22,-0.43 0.14,0.29 -0.14,-0.33 -0.02,-0.04 -0.12,-0.17 -0.13,-0.26 -0.01,-0.07 -0.04,-0.09 -0.07,-0.13l-0.03 1.73c-1.2,1.23 -2.28,0.29 -2.34,2.63 -0.05,1.97 -0.3,3.09 1.17,3.81 0.99,0.49 2.5,0.92 3.61,1.25 3.08,0.89 2.71,-0.57 3.32,-0.78l4.91 -0.36c0.68,2.57 2.62,1.65 4.23,0.67 0.68,-0.42 1.52,-1.01 2.03,-1.5 2.46,-2.32 1.36,-2.29 0.19,-3.53 -0.72,-0.76 -0.29,-1.16 -0.45,-2.13z"/>
    <path class="fil2" d="M95.63 87.62c0,-1.13 -1.18,-1.7 -2.17,-2.06 -0.45,-0.16 -2.07,0.79 -2.39,1.23 -1.34,1.88 2.95,2.53 4.56,0.83z"/>
    <path class="fil2" d="M93.99 85.28c0.38,-0.33 0.15,-0.55 0.6,-1.1 1.78,0.08 0.43,1.39 1.24,2.17 1.33,-0.41 0.55,-5.71 -1.77,-2.83 -0.2,0.24 -0.46,0.62 -0.53,0.96 -0.15,0.79 -0.16,0.57 0.46,0.8z"/>
    <path class="fil2" d="M91.18 86.16c0.09,-0.72 -0.21,-1.13 0.07,-2 0.86,-0.01 0.58,-0.18 0.91,0.4l0.25 0.63c0.01,-0.02 0.04,0.08 0.06,0.12 0,-0.01 0.92,0 0.19,-1.54 -1.03,-2.19 -3.5,0.22 -2.04,2.51l0.56 -0.12z"/>
   </g>
  </g>
 </g>
</svg>
